<?xml version="1.0" encoding="UTF-8"?>
<svg xmlns="http://www.w3.org/2000/svg" version="1.1" viewBox="0 0 448 512">
  <defs>
    <style>
      .cls-1 {
        fill: #fff;
      }
    </style>
  </defs>
  <!-- Generator: Adobe Illustrator 28.7.1, SVG Export Plug-In . SVG Version: 1.2.0 Build 142)  -->
  <g>
    <g id="Capa_1">
      <path class="cls-1" d="M224.1,154.2c-56.3,0-101.7,45.4-101.7,101.7s45.4,101.7,101.7,101.7,101.7-45.4,101.7-101.7-45.4-101.7-101.7-101.7ZM224.1,322c-36.4,0-66.1-29.7-66.1-66.1s29.7-66.1,66.1-66.1,66.1,29.7,66.1,66.1-29.7,66.1-66.1,66.1h0ZM353.7,150c0,13.2-10.6,23.7-23.7,23.7s-23.7-10.6-23.7-23.7,10.6-23.7,23.7-23.7,23.7,10.6,23.7,23.7ZM421.1,174.1c-1.5-31.8-8.8-59.9-32-83.1-23.2-23.2-51.3-30.5-83.1-32-32.8-1.9-130.9-1.9-163.7,0-31.7,1.5-59.8,8.8-83.1,32-23.3,23.2-30.5,51.3-32,83.1-1.9,32.8-1.9,130.9,0,163.7,1.5,31.8,8.8,59.9,32,83.1,23.3,23.2,51.3,30.5,83.1,32,32.8,1.9,130.9,1.9,163.7,0,31.8-1.5,59.9-8.8,83.1-32,23.2-23.2,30.5-51.3,32-83.1,1.9-32.8,1.9-130.9,0-163.6h0ZM378.8,372.9c-6.9,17.4-20.3,30.7-37.7,37.7-26.1,10.4-88.1,8-117,8s-90.9,2.3-117-8c-17.4-6.9-30.7-20.3-37.7-37.7-10.4-26.1-8-88.1-8-117s-2.3-90.9,8-117c6.9-17.4,20.3-30.7,37.7-37.7,26.1-10.4,88.1-8,117-8s90.9-2.3,117,8c17.4,6.9,30.7,20.3,37.7,37.7,10.4,26.1,8,88.1,8,117s2.4,90.9-8,117Z"/>
    </g>
  </g>
</svg>