<?xml version="1.0" encoding="UTF-8"?>
<svg xmlns="http://www.w3.org/2000/svg" version="1.1" viewBox="0 0 512 512">
  <defs>
    <style>
      .cls-1 {
        fill: #d40d45;
      }
    </style>
  </defs>
  <!-- Generator: Adobe Illustrator 28.7.1, SVG Export Plug-In . SVG Version: 1.2.0 Build 142)  -->
  <g>
    <g id="Capa_1">
      <path class="cls-1" d="M175.2,476.6c-9.7-18-15.2-38.7-15.2-60.6,0-40.3,19-78.2,51.2-102.4l64-48c8.1-6,12.8-15.5,12.8-25.6V96h-160v144c0,20.1-9.5,39.1-25.6,51.2l-64,48C14.2,357.3,0,385.8,0,416c0,53,43,96,96,96s41-6.7,57.6-19.2l21.6-16.2h0ZM128,64h160v-16c0-14.5,3.9-28.2,10.7-39.9-7.7-5.1-16.8-8.1-26.7-8.1h-96c-26.5,0-48,21.5-48,48v16ZM320,96v144c0,20.1-9.5,39.1-25.6,51.2l-64,48c-24.2,18.1-38.4,46.6-38.4,76.8,0,53,43,96,96,96s41-6.7,57.6-19.2l115.2-86.4c32.2-24.2,51.2-62.1,51.2-102.4V96h-192ZM512,64v-16c0-26.5-21.5-48-48-48h-96c-26.5,0-48,21.5-48,48v16h192Z"/>
    </g>
  </g>
</svg>