<?xml version="1.0" encoding="UTF-8"?>
<svg xmlns="http://www.w3.org/2000/svg" version="1.1" viewBox="0 0 448 512">
  <defs>
    <style>
      .cls-1 {
        fill: #fff;
      }
    </style>
  </defs>
  <!-- Generator: Adobe Illustrator 28.7.1, SVG Export Plug-In . SVG Version: 1.2.0 Build 142)  -->
  <g>
    <g id="Capa_1">
      <path class="cls-1" d="M363,115.2c-37.1-37.2-86.5-57.7-139.1-57.7-108.4,0-196.7,88.2-196.7,196.7s9,68.5,26.2,98.3l-27.9,101.9,104.3-27.4c28.7,15.7,61,23.9,94,23.9h0c108.3,0,198.5-88.2,198.5-196.7s-22.3-101.9-59.4-139.1ZM223.9,417.8c-29.4,0-58.2-7.9-83.3-22.8l-5.9-3.5-61.8,16.2,16.5-60.3-3.9-6.2c-16.4-26-25-56.1-25-87,0-90.1,73.3-163.4,163.5-163.4s84.7,17,115.5,47.9c30.8,30.9,49.8,71.9,49.7,115.6,0,90.2-75.2,163.5-165.3,163.5ZM313.6,295.4c-4.9-2.5-29.1-14.4-33.6-15.9-4.5-1.7-7.8-2.5-11.1,2.5-3.3,5-12.7,15.9-15.6,19.3-2.8,3.3-5.8,3.7-10.6,1.2-28.9-14.4-47.8-25.8-66.9-58.5-5-8.7,5-8.1,14.4-26.8,1.6-3.3.8-6.1-.4-8.6s-11.1-26.7-15.1-36.5c-4-9.6-8.1-8.2-11.1-8.4-2.8-.2-6.1-.2-9.4-.2s-8.6,1.2-13.1,6.1c-4.5,5-17.2,16.8-17.2,41s17.6,47.6,20,50.8c2.5,3.3,34.6,52.9,84,74.2,31.2,13.5,43.4,14.6,59,12.3,9.5-1.4,29.1-11.9,33.1-23.4s4.1-21.3,2.8-23.4c-1.2-2.2-4.4-3.5-9.3-5.8Z"/>
    </g>
  </g>
</svg>